<?xml version="1.0" standalone="no"?>
<!DOCTYPE svg PUBLIC "-//W3C//DTD SVG 20010904//EN"
 "http://www.w3.org/TR/2001/REC-SVG-20010904/DTD/svg10.dtd">
<svg version="1.0" xmlns="http://www.w3.org/2000/svg"
 width="148.000000pt" height="148.000000pt" viewBox="0 0 148.000000 148.000000"
 preserveAspectRatio="xMidYMid meet">
<metadata>
Created by potrace 1.14, written by Peter Selinger 2001-2017
</metadata>
<g transform="translate(0.000000,148.000000) scale(0.100000,-0.100000)"
fill="#000000" stroke="none">
<path d="M87 893 c-4 -3 -7 -12 -7 -20 0 -10 19 -13 72 -13 68 0 70 1 54 18
-16 19 -105 30 -119 15z"/>
<path d="M265 880 c11 -12 31 -20 50 -20 39 0 75 -35 75 -73 0 -45 -42 -74
-96 -68 -6 1 -19 -8 -29 -19 -18 -20 -18 -20 28 -20 82 0 130 41 130 111 0 64
-58 109 -139 109 -36 0 -37 0 -19 -20z"/>
<path d="M463 884 c-8 -21 4 -139 16 -163 14 -25 65 -45 96 -37 35 9 67 43 63
68 -5 32 -22 32 -34 0 -13 -34 -43 -45 -76 -28 -21 10 -23 19 -26 94 -2 65 -6
82 -18 82 -8 0 -17 -7 -21 -16z"/>
<path d="M760 835 c0 -36 -3 -65 -6 -65 -3 0 -36 27 -72 60 -61 55 -67 59 -70
38 -3 -17 11 -36 60 -80 34 -32 75 -68 91 -79 l27 -20 0 105 c0 88 -3 106 -15
106 -12 0 -15 -14 -15 -65z"/>
<path d="M894 886 c-67 -29 -85 -109 -38 -165 64 -76 184 -35 184 63 0 50 -21
83 -66 102 -40 17 -41 17 -80 0z m93 -48 c48 -45 16 -118 -51 -118 -37 0 -76
36 -76 70 0 10 9 29 21 44 26 33 73 35 106 4z"/>
<path d="M1058 893 c-2 -4 19 -53 48 -107 42 -81 53 -96 61 -82 7 14 -1 38
-36 104 -43 80 -64 104 -73 85z"/>
<path d="M1262 785 l-52 -105 105 0 c61 0 105 4 105 10 0 19 -44 32 -96 28
-62 -5 -64 0 -30 56 l24 40 16 -32 c10 -20 24 -32 36 -32 19 0 18 5 -15 70
-19 39 -36 70 -38 70 -1 0 -26 -47 -55 -105z"/>
<path d="M86 803 c-3 -4 -6 -12 -6 -20 0 -10 19 -13 76 -13 66 0 75 2 72 17
-3 15 -15 18 -70 20 -36 1 -69 -1 -72 -4z"/>
<path d="M86 712 c-3 -3 -6 -11 -6 -19 0 -9 16 -13 58 -13 53 0 82 11 82 32 0
9 -126 9 -134 0z"/>
<path d="M375 634 c0 -18 5 -24 23 -24 13 0 22 6 22 15 0 21 17 19 24 -2 3
-11 4 -8 3 7 -2 20 -8 25 -37 26 -31 2 -35 0 -35 -22z m35 -4 c0 -5 -5 -10
-11 -10 -5 0 -7 5 -4 10 3 6 8 10 11 10 2 0 4 -4 4 -10z"/>
<path d="M510 640 c0 -11 -4 -20 -10 -20 -5 0 -10 7 -10 15 0 20 -16 19 -24
-1 -3 -9 -6 -16 -6 -17 0 -1 13 -3 29 -4 23 -2 31 3 34 20 l4 22 8 -21 c5 -18
15 -22 48 -22 32 0 37 2 22 8 -13 6 -15 9 -5 9 13 1 13 3 1 10 -11 7 -10 10 5
14 10 2 4 4 -13 3 -26 -1 -33 -6 -34 -21 0 -15 -2 -16 -6 -5 -13 32 -43 39
-43 10z"/>
<path d="M660 652 c-29 -14 -22 -38 13 -40 24 -2 28 0 17 8 -10 6 -11 10 -2
10 6 0 12 7 12 15 0 16 -15 18 -40 7z"/>
<path d="M733 643 c-3 -10 -8 -21 -10 -25 -2 -5 0 -8 6 -8 5 0 12 10 14 23 l4
22 8 -22 c8 -25 30 -31 38 -10 4 10 6 10 6 0 1 -7 5 -13 11 -13 6 0 5 10 -2
26 l-12 25 -11 -22 -12 -21 -6 21 c-6 25 -25 28 -34 4z"/>
<path d="M833 653 c-19 -7 -16 -23 5 -23 14 0 15 -2 2 -10 -13 -8 -12 -10 3
-10 18 0 20 5 9 31 -4 9 -13 14 -19 12z"/>
<path d="M889 658 c0 -2 -2 -13 -3 -25 -3 -24 9 -32 17 -10 3 9 9 9 28 0 14
-8 56 -12 104 -10 64 2 80 5 83 18 4 22 -24 32 -40 15 -11 -11 -15 -11 -25 3
-11 14 -12 14 -13 -2 0 -12 -6 -17 -17 -15 -10 2 -17 9 -16 15 2 12 -45 12
-64 0 -6 -4 -14 -3 -18 3 -5 9 -33 15 -36 8z m81 -29 c0 -5 -4 -9 -10 -9 -5 0
-10 7 -10 16 0 8 5 12 10 9 6 -3 10 -10 10 -16z m130 5 c0 -8 -5 -12 -10 -9
-6 4 -8 11 -5 16 9 14 15 11 15 -7z m-90 -10 c0 -2 -7 -4 -15 -4 -8 0 -15 4
-15 10 0 5 7 7 15 4 8 -4 15 -8 15 -10z"/>
</g>
</svg>
